<?xml version="1.0" encoding="UTF-8"?>
<svg width="246px" height="80px" viewBox="0 0 246 80" version="1.1" xmlns="http://www.w3.org/2000/svg" xmlns:xlink="http://www.w3.org/1999/xlink">
    <!-- Generator: Sketch 40.2 (33826) - http://www.bohemiancoding.com/sketch -->
    <title>Logo</title>
    <desc>Created with Sketch.</desc>
    <defs></defs>
    <g id="Page-1" stroke="none" stroke-width="1" fill="none" fill-rule="evenodd">
        <g id="white-on-black" transform="translate(-333.000000, -216.000000)" fill="#000000">
            <g id="Logo" transform="translate(333.000000, 215.000000)">
                <polygon id="Fill-1" points="240.9656 1.0004 198.2906 74.9934 187.1156 55.6254 184.8306 59.5904 197.1726 80.9784 199.4836 80.9784 245.6146 1.0004"></polygon>
                <polygon id="Fill-2" points="200.4881 1.0004 178.0571 39.9514 155.5981 1.0004 151.0241 1.0004 175.7491 43.9524 157.8271 74.9934 115.1141 1.0004 110.5411 1.0004 156.6941 80.9784 159.0021 80.9784 205.1371 1.0004"></polygon>
                <g id="Group-9" transform="translate(0.000000, 0.179000)">
                    <path d="M67.7744,0.8301 C54.2554,0.8301 67.7744,0.8301 67.7744,0.8301 L0.9904,0.8301 L0.9904,4.8301 L68.3774,4.8301 C77.6244,4.8301 85.6314,12.5361 85.6314,22.4051 C85.6314,31.3951 78.3444,39.7451 68.0634,39.7451 L17.8134,39.7451 C8.6264,39.7451 0.9974,47.2711 0.9974,56.6711 L0.9974,80.7901 L4.9974,80.7901 L4.9974,56.6711 C4.9974,49.4961 10.8604,43.7491 17.8134,43.7491 L68.3404,43.7431 C80.4434,43.7431 89.6314,33.5771 89.6314,22.4051 C89.6314,11.6901 81.3074,0.8301 67.7744,0.8301" id="Fill-3"></path>
                    <polygon id="Fill-5" points="71.0717 55.417 85.7247 80.79 90.2977 80.79 75.6617 55.417"></polygon>
                </g>
            </g>
        </g>
    </g>
</svg>