  0
SECTION
  2
HEADER
  9
$ACADVER
  1
AC1009
  9
$EXTMIN
 10
0.0
 20
0.0
 30
0.0
  9
$EXTMAX
 10
1000.0
 20
1000.0
 30
0.0
  9
$FILLMODE
 70
 0
  9
$SPLFRAME
 70
 1
  0
ENDSEC
  0
SECTION
  2
TABLES
  0
TABLE
  2
LAYER
 70
1
  0
LAYER
  2
0
 70
     0
 62
     7
  6
CONTINUOUS
  0
ENDTAB
  0
ENDSEC
  0
SECTION
  2
ENTITIES
  0
LINE
  8
0
 62
     0
 10
67.7263
 20
22.5709
 30
0.0
 11
55.6824
 21
1.6881
 31
0.0
  0
LINE
  8
0
 62
     0
 10
55.6824
 20
1.6881
 30
0.0
 11
52.5279
 21
7.15479
 31
0.0
  0
LINE
  8
0
 62
     0
 10
52.5279
 20
7.15479
 30
0.0
 11
51.883
 21
6.03582
 31
0.0
  0
LINE
  8
0
 62
     0
 10
51.883
 20
6.03582
 30
0.0
 11
55.3667
 21
0.00137804
 31
0.0
  0
LINE
  8
0
 62
     0
 10
55.3667
 20
0.00137804
 30
0.0
 11
56.0186
 21
0.00137804
 31
0.0
  0
LINE
  8
0
 62
     0
 10
56.0186
 20
0.00137804
 30
0.0
 11
69.0383
 21
22.5709
 31
0.0
  0
LINE
  8
0
 62
     0
 10
69.0383
 20
22.5709
 30
0.0
 11
67.7263
 21
22.5709
 31
0.0
  0
LINE
  8
0
 62
     0
 10
56.3026
 20
22.5709
 30
0.0
 11
49.9717
 21
11.5783
 31
0.0
  0
LINE
  8
0
 62
     0
 10
49.9717
 20
11.5783
 30
0.0
 11
43.6344
 21
22.5709
 31
0.0
  0
LINE
  8
0
 62
     0
 10
43.6344
 20
22.5709
 30
0.0
 11
42.3429
 21
22.5709
 31
0.0
  0
LINE
  8
0
 62
     0
 10
42.3429
 20
22.5709
 30
0.0
 11
49.3215
 21
10.4483
 31
0.0
  0
LINE
  8
0
 62
     0
 10
49.3215
 20
10.4483
 30
0.0
 11
44.2627
 21
1.6881
 31
0.0
  0
LINE
  8
0
 62
     0
 10
44.2627
 20
1.6881
 30
0.0
 11
32.2089
 21
22.5709
 31
0.0
  0
LINE
  8
0
 62
     0
 10
32.2089
 20
22.5709
 30
0.0
 11
30.9177
 21
22.5709
 31
0.0
  0
LINE
  8
0
 62
     0
 10
30.9177
 20
22.5709
 30
0.0
 11
43.9431
 21
0.00137804
 31
0.0
  0
LINE
  8
0
 62
     0
 10
43.9431
 20
0.00137804
 30
0.0
 11
44.5946
 21
0.00137804
 31
0.0
  0
LINE
  8
0
 62
     0
 10
44.5946
 20
0.00137804
 30
0.0
 11
57.6143
 21
22.5709
 31
0.0
  0
LINE
  8
0
 62
     0
 10
57.6143
 20
22.5709
 30
0.0
 11
56.3026
 21
22.5709
 31
0.0
  0
LINE
  8
0
 62
     0
 10
18.8474
 20
22.5695
 30
0.0
 11
18.5732
 21
22.5695
 31
0.0
  0
LINE
  8
0
 62
     0
 10
18.5732
 20
22.5695
 30
0.0
 11
17.7519
 21
22.5695
 31
0.0
  0
LINE
  8
0
 62
     0
 10
17.7519
 20
22.5695
 30
0.0
 11
17.2379
 21
22.5695
 31
0.0
  0
LINE
  8
0
 62
     0
 10
17.2379
 20
22.5695
 30
0.0
 11
17.1704
 21
22.5695
 31
0.0
  0
LINE
  8
0
 62
     0
 10
17.1704
 20
22.5695
 30
0.0
 11
17.417
 21
22.5695
 31
0.0
  0
LINE
  8
0
 62
     0
 10
17.417
 20
22.5695
 30
0.0
 11
17.8415
 21
22.5695
 31
0.0
  0
LINE
  8
0
 62
     0
 10
17.8415
 20
22.5695
 30
0.0
 11
18.31
 21
22.5695
 31
0.0
  0
LINE
  8
0
 62
     0
 10
18.31
 20
22.5695
 30
0.0
 11
18.6903
 21
22.5695
 31
0.0
  0
LINE
  8
0
 62
     0
 10
18.6903
 20
22.5695
 30
0.0
 11
18.8474
 21
22.5695
 31
0.0
  0
LINE
  8
0
 62
     0
 10
18.8474
 20
22.5695
 30
0.0
 11
18.8474
 21
22.5695
 31
0.0
  0
LINE
  8
0
 62
     0
 10
18.8474
 20
22.5695
 30
0.0
 11
0
 21
22.5695
 31
0.0
  0
LINE
  8
0
 62
     0
 10
0
 20
22.5695
 30
0.0
 11
0
 21
21.4395
 31
0.0
  0
LINE
  8
0
 62
     0
 10
0
 20
21.4395
 30
0.0
 11
19.0183
 21
21.4395
 31
0.0
  0
LINE
  8
0
 62
     0
 10
19.0183
 20
21.4395
 30
0.0
 11
19.2567
 21
21.4395
 31
0.0
  0
LINE
  8
0
 62
     0
 10
19.2567
 20
21.4395
 30
0.0
 11
19.976
 21
21.3417
 31
0.0
  0
LINE
  8
0
 62
     0
 10
19.976
 20
21.3417
 30
0.0
 11
20.88
 21
21.0564
 31
0.0
  0
LINE
  8
0
 62
     0
 10
20.88
 20
21.0564
 30
0.0
 11
21.7055
 21
20.6058
 31
0.0
  0
LINE
  8
0
 62
     0
 10
21.7055
 20
20.6058
 30
0.0
 11
22.4303
 21
20.005
 31
0.0
  0
LINE
  8
0
 62
     0
 10
22.4303
 20
20.005
 30
0.0
 11
23.0339
 21
19.2746
 31
0.0
  0
LINE
  8
0
 62
     0
 10
23.0339
 20
19.2746
 30
0.0
 11
23.4928
 21
18.4313
 31
0.0
  0
LINE
  8
0
 62
     0
 10
23.4928
 20
18.4313
 30
0.0
 11
23.7836
 21
17.4942
 31
0.0
  0
LINE
  8
0
 62
     0
 10
23.7836
 20
17.4942
 30
0.0
 11
23.8869
 21
16.7349
 31
0.0
  0
LINE
  8
0
 62
     0
 10
23.8869
 20
16.7349
 30
0.0
 11
23.8869
 21
16.4814
 31
0.0
  0
LINE
  8
0
 62
     0
 10
23.8869
 20
16.4814
 30
0.0
 11
23.8869
 21
16.2471
 31
0.0
  0
LINE
  8
0
 62
     0
 10
23.8869
 20
16.2471
 30
0.0
 11
23.7918
 21
15.5429
 31
0.0
  0
LINE
  8
0
 62
     0
 10
23.7918
 20
15.5429
 30
0.0
 11
23.519
 21
14.6458
 31
0.0
  0
LINE
  8
0
 62
     0
 10
23.519
 20
14.6458
 30
0.0
 11
23.0821
 21
13.8176
 31
0.0
  0
LINE
  8
0
 62
     0
 10
23.0821
 20
13.8176
 30
0.0
 11
22.4951
 21
13.0831
 31
0.0
  0
LINE
  8
0
 62
     0
 10
22.4951
 20
13.0831
 30
0.0
 11
21.773
 21
12.4671
 31
0.0
  0
LINE
  8
0
 62
     0
 10
21.773
 20
12.4671
 30
0.0
 11
20.9283
 21
11.9944
 31
0.0
  0
LINE
  8
0
 62
     0
 10
20.9283
 20
11.9944
 30
0.0
 11
19.9747
 21
11.694
 31
0.0
  0
LINE
  8
0
 62
     0
 10
19.9747
 20
11.694
 30
0.0
 11
19.1905
 21
11.5866
 31
0.0
  0
LINE
  8
0
 62
     0
 10
19.1905
 20
11.5866
 30
0.0
 11
18.9301
 21
11.5866
 31
0.0
  0
LINE
  8
0
 62
     0
 10
18.9301
 20
11.5866
 30
0.0
 11
4.74733
 21
11.5866
 31
0.0
  0
LINE
  8
0
 62
     0
 10
4.74733
 20
11.5866
 30
0.0
 11
4.50896
 21
11.5866
 31
0.0
  0
LINE
  8
0
 62
     0
 10
4.50896
 20
11.5866
 30
0.0
 11
3.79786
 21
11.4901
 31
0.0
  0
LINE
  8
0
 62
     0
 10
3.79786
 20
11.4901
 30
0.0
 11
2.9118
 21
11.2131
 31
0.0
  0
LINE
  8
0
 62
     0
 10
2.9118
 20
11.2131
 30
0.0
 11
2.10564
 21
10.7749
 31
0.0
  0
LINE
  8
0
 62
     0
 10
2.10564
 20
10.7749
 30
0.0
 11
1.40147
 21
10.1933
 31
0.0
  0
LINE
  8
0
 62
     0
 10
1.40147
 20
10.1933
 30
0.0
 11
0.818554
 21
9.48778
 31
0.0
  0
LINE
  8
0
 62
     0
 10
0.818554
 20
9.48778
 30
0.0
 11
0.377582
 21
8.67615
 31
0.0
  0
LINE
  8
0
 62
     0
 10
0.377582
 20
8.67615
 30
0.0
 11
0.0978408
 21
7.77766
 31
0.0
  0
LINE
  8
0
 62
     0
 10
0.0978408
 20
7.77766
 30
0.0
 11
0.00137804
 21
7.0528
 31
0.0
  0
LINE
  8
0
 62
     0
 10
0.00137804
 20
7.0528
 30
0.0
 11
0.00137804
 21
6.81027
 31
0.0
  0
LINE
  8
0
 62
     0
 10
0.00137804
 20
6.81027
 30
0.0
 11
0.00137804
 21
0.00275608
 31
0.0
  0
LINE
  8
0
 62
     0
 10
0.00137804
 20
0.00275608
 30
0.0
 11
1.13137
 21
0.00275608
 31
0.0
  0
LINE
  8
0
 62
     0
 10
1.13137
 20
0.00275608
 30
0.0
 11
1.13137
 21
6.81027
 31
0.0
  0
LINE
  8
0
 62
     0
 10
1.13137
 20
6.81027
 30
0.0
 11
1.13137
 21
7.16717
 31
0.0
  0
LINE
  8
0
 62
     0
 10
1.13137
 20
7.16717
 30
0.0
 11
1.41938
 21
8.23376
 31
0.0
  0
LINE
  8
0
 62
     0
 10
1.41938
 20
8.23376
 30
0.0
 11
2.20348
 21
9.39271
 31
0.0
  0
LINE
  8
0
 62
     0
 10
2.20348
 20
9.39271
 30
0.0
 11
3.35414
 21
10.1713
 31
0.0
  0
LINE
  8
0
 62
     0
 10
3.35414
 20
10.1713
 30
0.0
 11
4.39872
 21
10.4565
 31
0.0
  0
LINE
  8
0
 62
     0
 10
4.39872
 20
10.4565
 30
0.0
 11
4.74733
 21
10.4565
 31
0.0
  0
LINE
  8
0
 62
     0
 10
4.74733
 20
10.4565
 30
0.0
 11
19.0073
 21
10.4579
 31
0.0
  0
LINE
  8
0
 62
     0
 10
19.0073
 20
10.4579
 30
0.0
 11
19.6012
 21
10.4579
 31
0.0
  0
LINE
  8
0
 62
     0
 10
19.6012
 20
10.4579
 30
0.0
 11
21.3872
 21
10.9568
 31
0.0
  0
LINE
  8
0
 62
     0
 10
21.3872
 20
10.9568
 30
0.0
 11
23.293
 21
12.288
 31
0.0
  0
LINE
  8
0
 62
     0
 10
23.293
 20
12.288
 30
0.0
 11
24.558
 21
14.2103
 31
0.0
  0
LINE
  8
0
 62
     0
 10
24.558
 20
14.2103
 30
0.0
 11
25.0169
 21
15.9136
 31
0.0
  0
LINE
  8
0
 62
     0
 10
25.0169
 20
15.9136
 30
0.0
 11
25.0169
 21
16.4814
 31
0.0
  0
LINE
  8
0
 62
     0
 10
25.0169
 20
16.4814
 30
0.0
 11
25.0169
 21
17.0381
 31
0.0
  0
LINE
  8
0
 62
     0
 10
25.0169
 20
17.0381
 30
0.0
 11
24.5897
 21
18.7083
 31
0.0
  0
LINE
  8
0
 62
     0
 10
24.5897
 20
18.7083
 30
0.0
 11
23.3646
 21
20.6595
 31
0.0
  0
LINE
  8
0
 62
     0
 10
23.3646
 20
20.6595
 30
0.0
 11
21.4216
 21
22.0445
 31
0.0
  0
LINE
  8
0
 62
     0
 10
21.4216
 20
22.0445
 30
0.0
 11
19.491
 21
22.5695
 31
0.0
  0
LINE
  8
0
 62
     0
 10
19.491
 20
22.5695
 30
0.0
 11
18.8474
 21
22.5695
 31
0.0
  0
LINE
  8
0
 62
     0
 10
19.779
 20
7.16442
 30
0.0
 11
23.9145
 21
0.00275608
 31
0.0
  0
LINE
  8
0
 62
     0
 10
23.9145
 20
0.00275608
 30
0.0
 11
25.2043
 21
0.00275608
 31
0.0
  0
LINE
  8
0
 62
     0
 10
25.2043
 20
0.00275608
 30
0.0
 11
21.0743
 21
7.16442
 31
0.0
  0
LINE
  8
0
 62
     0
 10
21.0743
 20
7.16442
 30
0.0
 11
19.779
 21
7.16442
 31
0.0
  0
ENDSEC
  0
EOF
