solid OpenSCAD_Model
  facet normal -1 0 0
    outer loop
      vertex 0 0 0
      vertex 0 4.8125 8.75
      vertex 0 4.8125 0
    endloop
  endfacet
  facet normal -1 -0 0
    outer loop
      vertex 0 4.8125 8.75
      vertex 0 0 0
      vertex 0 0 8.75
    endloop
  endfacet
  facet normal -0 0 1
    outer loop
      vertex 0 4.8125 8.75
      vertex 122.5 0 8.75
      vertex 122.5 4.8125 8.75
    endloop
  endfacet
  facet normal 0 0 1
    outer loop
      vertex 122.5 0 8.75
      vertex 0 4.8125 8.75
      vertex 0 0 8.75
    endloop
  endfacet
  facet normal 1 -0 0
    outer loop
      vertex 122.5 0 8.75
      vertex 122.5 4.8125 0
      vertex 122.5 4.8125 8.75
    endloop
  endfacet
  facet normal 1 0 0
    outer loop
      vertex 122.5 4.8125 0
      vertex 122.5 0 8.75
      vertex 122.5 0 0
    endloop
  endfacet
  facet normal 0 1 -0
    outer loop
      vertex 50.35 4.8125 0
      vertex 10.7307 4.8125 1.75
      vertex 50.35 4.8125 1.75
    endloop
  endfacet
  facet normal 0 1 0
    outer loop
      vertex 10.7307 4.8125 1.75
      vertex 50.35 4.8125 0
      vertex 10.7307 4.8125 0
    endloop
  endfacet
  facet normal 0 1 -0
    outer loop
      vertex 85.3994 4.8125 0
      vertex 52.6078 4.8125 1.75
      vertex 85.3994 4.8125 1.75
    endloop
  endfacet
  facet normal 0 1 0
    outer loop
      vertex 52.6078 4.8125 1.75
      vertex 85.3994 4.8125 0
      vertex 52.6078 4.8125 0
    endloop
  endfacet
  facet normal 0 1 -0
    outer loop
      vertex 105.391 4.8125 0
      vertex 87.0422 4.8125 1.75
      vertex 105.391 4.8125 1.75
    endloop
  endfacet
  facet normal 0 1 0
    outer loop
      vertex 87.0422 4.8125 1.75
      vertex 105.391 4.8125 0
      vertex 87.0422 4.8125 0
    endloop
  endfacet
  facet normal 0 1 0
    outer loop
      vertex 105.391 4.8125 1.75
      vertex 122.5 4.8125 8.75
      vertex 107.034 4.8125 1.75
    endloop
  endfacet
  facet normal 0 1 -0
    outer loop
      vertex 122.5 4.8125 0
      vertex 107.034 4.8125 1.75
      vertex 122.5 4.8125 8.75
    endloop
  endfacet
  facet normal 0 1 0
    outer loop
      vertex 107.034 4.8125 1.75
      vertex 122.5 4.8125 0
      vertex 107.034 4.8125 0
    endloop
  endfacet
  facet normal 0 1 0
    outer loop
      vertex 87.0422 4.8125 1.75
      vertex 122.5 4.8125 8.75
      vertex 105.391 4.8125 1.75
    endloop
  endfacet
  facet normal 0 1 0
    outer loop
      vertex 85.3994 4.8125 1.75
      vertex 122.5 4.8125 8.75
      vertex 87.0422 4.8125 1.75
    endloop
  endfacet
  facet normal 0 1 0
    outer loop
      vertex 52.6078 4.8125 1.75
      vertex 122.5 4.8125 8.75
      vertex 85.3994 4.8125 1.75
    endloop
  endfacet
  facet normal 0 1 0
    outer loop
      vertex 122.5 4.8125 8.75
      vertex 52.6078 4.8125 1.75
      vertex 0 4.8125 8.75
    endloop
  endfacet
  facet normal 0 1 -0
    outer loop
      vertex 50.35 4.8125 1.75
      vertex 0 4.8125 8.75
      vertex 52.6078 4.8125 1.75
    endloop
  endfacet
  facet normal 0 1 -0
    outer loop
      vertex 10.7307 4.8125 1.75
      vertex 0 4.8125 8.75
      vertex 50.35 4.8125 1.75
    endloop
  endfacet
  facet normal 0 1 -0
    outer loop
      vertex 8.75171 4.8125 1.75
      vertex 0 4.8125 8.75
      vertex 10.7307 4.8125 1.75
    endloop
  endfacet
  facet normal 0 1 0
    outer loop
      vertex 0 4.8125 0
      vertex 8.75171 4.8125 1.75
      vertex 8.75171 4.8125 0
    endloop
  endfacet
  facet normal 0 1 0
    outer loop
      vertex 8.75171 4.8125 1.75
      vertex 0 4.8125 0
      vertex 0 4.8125 8.75
    endloop
  endfacet
  facet normal 0 0 -1
    outer loop
      vertex 122.5 0 0
      vertex 107.034 4.8125 0
      vertex 122.5 4.8125 0
    endloop
  endfacet
  facet normal 0 0 -1
    outer loop
      vertex 107.034 4.8125 0
      vertex 105.391 4.8125 0
      vertex 106.195 7.32983 0
    endloop
  endfacet
  facet normal 0 0 -1
    outer loop
      vertex 122.5 0 0
      vertex 105.391 4.8125 0
      vertex 107.034 4.8125 0
    endloop
  endfacet
  facet normal 0 0 -1
    outer loop
      vertex 122.5 0 0
      vertex 87.0422 4.8125 0
      vertex 105.391 4.8125 0
    endloop
  endfacet
  facet normal 0 0 -1
    outer loop
      vertex 87.0422 4.8125 0
      vertex 85.3994 4.8125 0
      vertex 86.2097 7.32983 0
    endloop
  endfacet
  facet normal 0 0 -1
    outer loop
      vertex 122.5 0 0
      vertex 85.3994 4.8125 0
      vertex 87.0422 4.8125 0
    endloop
  endfacet
  facet normal 0 0 -1
    outer loop
      vertex 122.5 0 0
      vertex 52.6078 4.8125 0
      vertex 85.3994 4.8125 0
    endloop
  endfacet
  facet normal 0 0 -1
    outer loop
      vertex 0 0 0
      vertex 52.6078 4.8125 0
      vertex 122.5 0 0
    endloop
  endfacet
  facet normal -0 0 -1
    outer loop
      vertex 52.6078 4.8125 0
      vertex 0 0 0
      vertex 50.35 4.8125 0
    endloop
  endfacet
  facet normal 0 0 -1
    outer loop
      vertex 8.75171 16.7173 0
      vertex 10.7307 16.9172 0
      vertex 10.7307 4.8125 0
    endloop
  endfacet
  facet normal 0 -0 -1
    outer loop
      vertex 8.9209 17.9854 0
      vertex 10.7307 16.9172 0
      vertex 8.75171 16.7173 0
    endloop
  endfacet
  facet normal 0 0 -1
    outer loop
      vertex 10.7307 16.9172 0
      vertex 9.41138 19.5576 0
      vertex 10.1821 20.9778 0
    endloop
  endfacet
  facet normal 0 0 -1
    outer loop
      vertex 8.75171 16.7173 0
      vertex 10.7307 4.8125 0
      vertex 8.75171 4.8125 0
    endloop
  endfacet
  facet normal -0 0 -1
    outer loop
      vertex 50.35 4.8125 0
      vertex 0 0 0
      vertex 10.7307 4.8125 0
    endloop
  endfacet
  facet normal -0 0 -1
    outer loop
      vertex 10.7307 4.8125 0
      vertex 0 0 0
      vertex 8.75171 4.8125 0
    endloop
  endfacet
  facet normal -0 0 -1
    outer loop
      vertex 8.75171 4.8125 0
      vertex 0 0 0
      vertex 0 4.8125 0
    endloop
  endfacet
  facet normal 0 0 -1
    outer loop
      vertex 106.195 7.32983 0
      vertex 129.567 43.8748 0
      vertex 107.034 4.8125 0
    endloop
  endfacet
  facet normal -0 0 -1
    outer loop
      vertex 129.567 43.8748 0
      vertex 106.195 7.32983 0
      vertex 127.271 43.8748 0
    endloop
  endfacet
  facet normal 0 0 -1
    outer loop
      vertex 99.5449 14.9382 0
      vertex 106.195 7.32983 0
      vertex 105.391 4.8125 0
    endloop
  endfacet
  facet normal 0 0 -1
    outer loop
      vertex 106.195 7.32983 0
      vertex 99.5449 14.9382 0
      vertex 100.675 16.8967 0
    endloop
  endfacet
  facet normal -0 0 -1
    outer loop
      vertex 109.575 43.8748 0
      vertex 96.2004 24.6367 0
      vertex 107.28 43.8748 0
    endloop
  endfacet
  facet normal 0 0 -1
    outer loop
      vertex 87.0422 4.8125 0
      vertex 96.2004 24.6367 0
      vertex 109.575 43.8748 0
    endloop
  endfacet
  facet normal 0 0 -1
    outer loop
      vertex 96.2004 24.6367 0
      vertex 87.0422 4.8125 0
      vertex 95.0623 22.6594 0
    endloop
  endfacet
  facet normal 0 0 -1
    outer loop
      vertex 95.0623 22.6594 0
      vertex 87.0422 4.8125 0
      vertex 86.2097 7.32983 0
    endloop
  endfacet
  facet normal 0 0 -1
    outer loop
      vertex 95.0623 22.6594 0
      vertex 85.1108 43.8748 0
      vertex 96.2004 24.6367 0
    endloop
  endfacet
  facet normal -0 -0 -1
    outer loop
      vertex 85.1108 43.8748 0
      vertex 95.0623 22.6594 0
      vertex 82.8499 43.8748 0
    endloop
  endfacet
  facet normal 0 0 -1
    outer loop
      vertex 62.8564 43.8748 0
      vertex 86.2097 7.32983 0
      vertex 85.3994 4.8125 0
    endloop
  endfacet
  facet normal 0 0 -1
    outer loop
      vertex 86.2097 7.32983 0
      vertex 62.8564 43.8748 0
      vertex 65.1157 43.8748 0
    endloop
  endfacet
  facet normal 0 0 -1
    outer loop
      vertex 50.35 4.8125 0
      vertex 45.6299 16.9121 0
      vertex 52.6078 4.8125 0
    endloop
  endfacet
  facet normal -0 -0 -1
    outer loop
      vertex 45.6299 16.9121 0
      vertex 50.35 4.8125 0
      vertex 43.3638 16.9121 0
    endloop
  endfacet
  facet normal -0 0 -1
    outer loop
      vertex 52.5291 32.2246 0
      vertex 50.386 31.5752 0
      vertex 50.5518 32.8074 0
    endloop
  endfacet
  facet normal 0 0 -1
    outer loop
      vertex 51.7258 29.2424 0
      vertex 49.9075 30.0046 0
      vertex 50.386 31.5752 0
    endloop
  endfacet
  facet normal 0 0 -1
    outer loop
      vertex 49.1436 28.5554 0
      vertex 51.7258 29.2424 0
      vertex 49.5127 25.8792 0
    endloop
  endfacet
  facet normal -0 0 -1
    outer loop
      vertex 51.7258 29.2424 0
      vertex 49.1436 28.5554 0
      vertex 49.9075 30.0046 0
    endloop
  endfacet
  facet normal 0 0 -1
    outer loop
      vertex 49.5127 25.8792 0
      vertex 48.1165 27.2703 0
      vertex 49.1436 28.5554 0
    endloop
  endfacet
  facet normal 0 0 -1
    outer loop
      vertex 49.5127 25.8792 0
      vertex 46.8535 26.1919 0
      vertex 48.1165 27.2703 0
    endloop
  endfacet
  facet normal 0 0 -1
    outer loop
      vertex 46.1768 23.5498 0
      vertex 46.8535 26.1919 0
      vertex 49.5127 25.8792 0
    endloop
  endfacet
  facet normal 0 0 -1
    outer loop
      vertex 46.1768 23.5498 0
      vertex 45.3752 25.3647 0
      vertex 46.8535 26.1919 0
    endloop
  endfacet
  facet normal 0 0 -1
    outer loop
      vertex 46.1768 23.5498 0
      vertex 43.7056 24.8401 0
      vertex 45.3752 25.3647 0
    endloop
  endfacet
  facet normal 0 0 -1
    outer loop
      vertex 43.0527 22.6765 0
      vertex 43.7056 24.8401 0
      vertex 46.1768 23.5498 0
    endloop
  endfacet
  facet normal 0 0 -1
    outer loop
      vertex 43.0527 22.6765 0
      vertex 42.3333 24.6521 0
      vertex 43.7056 24.8401 0
    endloop
  endfacet
  facet normal 0 0 -1
    outer loop
      vertex 16.4473 22.6731 0
      vertex 42.3333 24.6521 0
      vertex 43.0527 22.6765 0
    endloop
  endfacet
  facet normal -0 0 -1
    outer loop
      vertex 42.3333 24.6521 0
      vertex 16.4473 22.6731 0
      vertex 16.6404 24.6521 0
    endloop
  endfacet
  facet normal 0 0 -1
    outer loop
      vertex 16.4473 22.6731 0
      vertex 15.3962 24.4829 0
      vertex 16.6404 24.6521 0
    endloop
  endfacet
  facet normal 0 0 -1
    outer loop
      vertex 14.6204 22.1741 0
      vertex 15.3962 24.4829 0
      vertex 16.4473 22.6731 0
    endloop
  endfacet
  facet normal 0 0 -1
    outer loop
      vertex 14.6204 22.1741 0
      vertex 13.8462 23.9976 0
      vertex 15.3962 24.4829 0
    endloop
  endfacet
  facet normal 0 0 -1
    outer loop
      vertex 12.4346 23.2302 0
      vertex 14.6204 22.1741 0
      vertex 12.6055 20.812 0
    endloop
  endfacet
  facet normal 0 0 -1
    outer loop
      vertex 14.6204 22.1741 0
      vertex 12.4346 23.2302 0
      vertex 13.8462 23.9976 0
    endloop
  endfacet
  facet normal 0 0 -1
    outer loop
      vertex 10.1821 20.9778 0
      vertex 12.6055 20.812 0
      vertex 11.2332 18.7834 0
    endloop
  endfacet
  facet normal 0 0 -1
    outer loop
      vertex 12.6055 20.812 0
      vertex 11.2024 22.2134 0
      vertex 12.4346 23.2302 0
    endloop
  endfacet
  facet normal 0 0 -1
    outer loop
      vertex 10.1821 20.9778 0
      vertex 11.2332 18.7834 0
      vertex 10.7307 16.9172 0
    endloop
  endfacet
  facet normal 0 0 -1
    outer loop
      vertex 12.6055 20.812 0
      vertex 10.1821 20.9778 0
      vertex 11.2024 22.2134 0
    endloop
  endfacet
  facet normal 0 0 -1
    outer loop
      vertex 50.5518 32.8074 0
      vertex 52.5291 34.1917 0
      vertex 52.5291 32.2246 0
    endloop
  endfacet
  facet normal 0 0 -1
    outer loop
      vertex 50.386 31.5752 0
      vertex 52.5291 32.2246 0
      vertex 51.7258 29.2424 0
    endloop
  endfacet
  facet normal 0 0 -1
    outer loop
      vertex 52.5291 34.1917 0
      vertex 50.5518 32.8074 0
      vertex 50.5518 33.6619 0
    endloop
  endfacet
  facet normal -0 0 -1
    outer loop
      vertex 52.5291 34.1917 0
      vertex 50.5518 33.6619 0
      vertex 50.3706 34.9897 0
    endloop
  endfacet
  facet normal 0 0 -1
    outer loop
      vertex 52.5291 34.1917 0
      vertex 50.3706 34.9897 0
      vertex 51.7822 37.114 0
    endloop
  endfacet
  facet normal 0 0 -1
    outer loop
      vertex 49.863 36.6304 0
      vertex 51.7822 37.114 0
      vertex 50.3706 34.9897 0
    endloop
  endfacet
  facet normal 0 0 -1
    outer loop
      vertex 49.0598 38.1052 0
      vertex 51.7822 37.114 0
      vertex 49.863 36.6304 0
    endloop
  endfacet
  facet normal 0 0 -1
    outer loop
      vertex 51.7822 37.114 0
      vertex 49.0598 38.1052 0
      vertex 49.6375 40.5286 0
    endloop
  endfacet
  facet normal 0 0 -1
    outer loop
      vertex 48.0037 39.3835 0
      vertex 49.6375 40.5286 0
      vertex 49.0598 38.1052 0
    endloop
  endfacet
  facet normal 0 0 -1
    outer loop
      vertex 46.7339 40.4346 0
      vertex 49.6375 40.5286 0
      vertex 48.0037 39.3835 0
    endloop
  endfacet
  facet normal 0 0 -1
    outer loop
      vertex 46.7339 40.4346 0
      vertex 46.2383 42.9536 0
      vertex 49.6375 40.5286 0
    endloop
  endfacet
  facet normal 0 0 -1
    outer loop
      vertex 45.2898 41.2241 0
      vertex 46.2383 42.9536 0
      vertex 46.7339 40.4346 0
    endloop
  endfacet
  facet normal 0 0 -1
    outer loop
      vertex 43.7073 41.7231 0
      vertex 46.2383 42.9536 0
      vertex 45.2898 41.2241 0
    endloop
  endfacet
  facet normal 0 0 -1
    outer loop
      vertex 43.7073 41.7231 0
      vertex 42.8596 43.8713 0
      vertex 46.2383 42.9536 0
    endloop
  endfacet
  facet normal 0 0 -1
    outer loop
      vertex 42.4495 41.894 0
      vertex 42.8596 43.8713 0
      vertex 43.7073 41.7231 0
    endloop
  endfacet
  facet normal 0 0 -1
    outer loop
      vertex 8.75 43.8713 0
      vertex 42.4495 41.894 0
      vertex 8.75 41.894 0
    endloop
  endfacet
  facet normal 0 0 -1
    outer loop
      vertex 42.4495 41.894 0
      vertex 8.75 43.8713 0
      vertex 42.8596 43.8713 0
    endloop
  endfacet
  facet normal 0 0 -1
    outer loop
      vertex 10.7307 16.9172 0
      vertex 8.9209 17.9854 0
      vertex 9.41138 19.5576 0
    endloop
  endfacet
  facet normal 0 -1 0
    outer loop
      vertex 0 0 0
      vertex 122.5 0 8.75
      vertex 0 0 8.75
    endloop
  endfacet
  facet normal 0 -1 -0
    outer loop
      vertex 122.5 0 8.75
      vertex 0 0 0
      vertex 122.5 0 0
    endloop
  endfacet
  facet normal 0 0 1
    outer loop
      vertex 106.195 7.32983 1.75
      vertex 129.567 43.8748 1.75
      vertex 127.271 43.8748 1.75
    endloop
  endfacet
  facet normal 0 0 1
    outer loop
      vertex 129.567 43.8748 1.75
      vertex 106.195 7.32983 1.75
      vertex 107.034 4.8125 1.75
    endloop
  endfacet
  facet normal 0 0 1
    outer loop
      vertex 106.195 7.32983 1.75
      vertex 105.391 4.8125 1.75
      vertex 107.034 4.8125 1.75
    endloop
  endfacet
  facet normal -0 0 1
    outer loop
      vertex 99.5449 14.9382 1.75
      vertex 106.195 7.32983 1.75
      vertex 100.675 16.8967 1.75
    endloop
  endfacet
  facet normal 0 0 1
    outer loop
      vertex 106.195 7.32983 1.75
      vertex 99.5449 14.9382 1.75
      vertex 105.391 4.8125 1.75
    endloop
  endfacet
  facet normal 0 0 1
    outer loop
      vertex 85.1108 43.8748 1.75
      vertex 95.0623 22.6594 1.75
      vertex 96.2004 24.6367 1.75
    endloop
  endfacet
  facet normal 0 0 1
    outer loop
      vertex 95.0623 22.6594 1.75
      vertex 85.1108 43.8748 1.75
      vertex 82.8499 43.8748 1.75
    endloop
  endfacet
  facet normal 0 0 1
    outer loop
      vertex 96.2004 24.6367 1.75
      vertex 109.575 43.8748 1.75
      vertex 107.28 43.8748 1.75
    endloop
  endfacet
  facet normal 0 0 1
    outer loop
      vertex 87.0422 4.8125 1.75
      vertex 96.2004 24.6367 1.75
      vertex 95.0623 22.6594 1.75
    endloop
  endfacet
  facet normal -0 0 1
    outer loop
      vertex 96.2004 24.6367 1.75
      vertex 87.0422 4.8125 1.75
      vertex 109.575 43.8748 1.75
    endloop
  endfacet
  facet normal -0 0 1
    outer loop
      vertex 86.2097 7.32983 1.75
      vertex 87.0422 4.8125 1.75
      vertex 95.0623 22.6594 1.75
    endloop
  endfacet
  facet normal 0 0 1
    outer loop
      vertex 86.2097 7.32983 1.75
      vertex 85.3994 4.8125 1.75
      vertex 87.0422 4.8125 1.75
    endloop
  endfacet
  facet normal -0 0 1
    outer loop
      vertex 62.8564 43.8748 1.75
      vertex 86.2097 7.32983 1.75
      vertex 65.1157 43.8748 1.75
    endloop
  endfacet
  facet normal 0 0 1
    outer loop
      vertex 86.2097 7.32983 1.75
      vertex 62.8564 43.8748 1.75
      vertex 85.3994 4.8125 1.75
    endloop
  endfacet
  facet normal -0 0 1
    outer loop
      vertex 50.3706 34.9897 1.75
      vertex 52.5291 34.1917 1.75
      vertex 51.7822 37.114 1.75
    endloop
  endfacet
  facet normal 0 -0 1
    outer loop
      vertex 50.5518 33.6619 1.75
      vertex 52.5291 34.1917 1.75
      vertex 50.3706 34.9897 1.75
    endloop
  endfacet
  facet normal 0 0 1
    outer loop
      vertex 52.5291 34.1917 1.75
      vertex 50.5518 32.8074 1.75
      vertex 52.5291 32.2246 1.75
    endloop
  endfacet
  facet normal 0 0 1
    outer loop
      vertex 50.5518 32.8074 1.75
      vertex 52.5291 34.1917 1.75
      vertex 50.5518 33.6619 1.75
    endloop
  endfacet
  facet normal 0 0 1
    outer loop
      vertex 51.7822 37.114 1.75
      vertex 49.863 36.6304 1.75
      vertex 50.3706 34.9897 1.75
    endloop
  endfacet
  facet normal -0 0 1
    outer loop
      vertex 49.0598 38.1052 1.75
      vertex 51.7822 37.114 1.75
      vertex 49.6375 40.5286 1.75
    endloop
  endfacet
  facet normal 0 0 1
    outer loop
      vertex 51.7822 37.114 1.75
      vertex 49.0598 38.1052 1.75
      vertex 49.863 36.6304 1.75
    endloop
  endfacet
  facet normal 0 0 1
    outer loop
      vertex 49.6375 40.5286 1.75
      vertex 48.0037 39.3835 1.75
      vertex 49.0598 38.1052 1.75
    endloop
  endfacet
  facet normal 0 0 1
    outer loop
      vertex 49.6375 40.5286 1.75
      vertex 46.7339 40.4346 1.75
      vertex 48.0037 39.3835 1.75
    endloop
  endfacet
  facet normal 0 0 1
    outer loop
      vertex 46.2383 42.9536 1.75
      vertex 46.7339 40.4346 1.75
      vertex 49.6375 40.5286 1.75
    endloop
  endfacet
  facet normal 0 0 1
    outer loop
      vertex 46.2383 42.9536 1.75
      vertex 45.2898 41.2241 1.75
      vertex 46.7339 40.4346 1.75
    endloop
  endfacet
  facet normal 0 0 1
    outer loop
      vertex 46.2383 42.9536 1.75
      vertex 43.7073 41.7231 1.75
      vertex 45.2898 41.2241 1.75
    endloop
  endfacet
  facet normal 0 0 1
    outer loop
      vertex 42.8596 43.8713 1.75
      vertex 43.7073 41.7231 1.75
      vertex 46.2383 42.9536 1.75
    endloop
  endfacet
  facet normal 0 0 1
    outer loop
      vertex 42.8596 43.8713 1.75
      vertex 42.4495 41.894 1.75
      vertex 43.7073 41.7231 1.75
    endloop
  endfacet
  facet normal -0 0 1
    outer loop
      vertex 8.75 43.8713 1.75
      vertex 42.4495 41.894 1.75
      vertex 42.8596 43.8713 1.75
    endloop
  endfacet
  facet normal 0 0 1
    outer loop
      vertex 42.4495 41.894 1.75
      vertex 8.75 43.8713 1.75
      vertex 8.75 41.894 1.75
    endloop
  endfacet
  facet normal 0 0 1
    outer loop
      vertex 50.386 31.5752 1.75
      vertex 52.5291 32.2246 1.75
      vertex 50.5518 32.8074 1.75
    endloop
  endfacet
  facet normal 0 0 1
    outer loop
      vertex 52.5291 32.2246 1.75
      vertex 50.386 31.5752 1.75
      vertex 51.7258 29.2424 1.75
    endloop
  endfacet
  facet normal -0 0 1
    outer loop
      vertex 49.9075 30.0046 1.75
      vertex 51.7258 29.2424 1.75
      vertex 50.386 31.5752 1.75
    endloop
  endfacet
  facet normal 0 0 1
    outer loop
      vertex 49.1436 28.5554 1.75
      vertex 51.7258 29.2424 1.75
      vertex 49.9075 30.0046 1.75
    endloop
  endfacet
  facet normal 0 0 1
    outer loop
      vertex 51.7258 29.2424 1.75
      vertex 49.1436 28.5554 1.75
      vertex 49.5127 25.8792 1.75
    endloop
  endfacet
  facet normal -0 0 1
    outer loop
      vertex 48.1165 27.2703 1.75
      vertex 49.5127 25.8792 1.75
      vertex 49.1436 28.5554 1.75
    endloop
  endfacet
  facet normal -0 0 1
    outer loop
      vertex 46.8535 26.1919 1.75
      vertex 49.5127 25.8792 1.75
      vertex 48.1165 27.2703 1.75
    endloop
  endfacet
  facet normal 0 0 1
    outer loop
      vertex 46.8535 26.1919 1.75
      vertex 46.1768 23.5498 1.75
      vertex 49.5127 25.8792 1.75
    endloop
  endfacet
  facet normal -0 0 1
    outer loop
      vertex 45.3752 25.3647 1.75
      vertex 46.1768 23.5498 1.75
      vertex 46.8535 26.1919 1.75
    endloop
  endfacet
  facet normal -0 0 1
    outer loop
      vertex 43.7056 24.8401 1.75
      vertex 46.1768 23.5498 1.75
      vertex 45.3752 25.3647 1.75
    endloop
  endfacet
  facet normal 0 0 1
    outer loop
      vertex 43.7056 24.8401 1.75
      vertex 43.0527 22.6765 1.75
      vertex 46.1768 23.5498 1.75
    endloop
  endfacet
  facet normal -0 0 1
    outer loop
      vertex 42.3333 24.6521 1.75
      vertex 43.0527 22.6765 1.75
      vertex 43.7056 24.8401 1.75
    endloop
  endfacet
  facet normal 0 0 1
    outer loop
      vertex 16.4473 22.6731 1.75
      vertex 42.3333 24.6521 1.75
      vertex 16.6404 24.6521 1.75
    endloop
  endfacet
  facet normal 0 0 1
    outer loop
      vertex 42.3333 24.6521 1.75
      vertex 16.4473 22.6731 1.75
      vertex 43.0527 22.6765 1.75
    endloop
  endfacet
  facet normal -0 0 1
    outer loop
      vertex 15.3962 24.4829 1.75
      vertex 16.4473 22.6731 1.75
      vertex 16.6404 24.6521 1.75
    endloop
  endfacet
  facet normal 0 0 1
    outer loop
      vertex 15.3962 24.4829 1.75
      vertex 14.6204 22.1741 1.75
      vertex 16.4473 22.6731 1.75
    endloop
  endfacet
  facet normal -0 0 1
    outer loop
      vertex 13.8462 23.9976 1.75
      vertex 14.6204 22.1741 1.75
      vertex 15.3962 24.4829 1.75
    endloop
  endfacet
  facet normal -0 0 1
    outer loop
      vertex 12.4346 23.2302 1.75
      vertex 14.6204 22.1741 1.75
      vertex 13.8462 23.9976 1.75
    endloop
  endfacet
  facet normal 0 0 1
    outer loop
      vertex 14.6204 22.1741 1.75
      vertex 12.4346 23.2302 1.75
      vertex 12.6055 20.812 1.75
    endloop
  endfacet
  facet normal -0 0 1
    outer loop
      vertex 11.2024 22.2134 1.75
      vertex 12.6055 20.812 1.75
      vertex 12.4346 23.2302 1.75
    endloop
  endfacet
  facet normal -0 0 1
    outer loop
      vertex 10.1821 20.9778 1.75
      vertex 12.6055 20.812 1.75
      vertex 11.2024 22.2134 1.75
    endloop
  endfacet
  facet normal 0 0 1
    outer loop
      vertex 12.6055 20.812 1.75
      vertex 10.1821 20.9778 1.75
      vertex 11.2332 18.7834 1.75
    endloop
  endfacet
  facet normal -0 0 1
    outer loop
      vertex 9.41138 19.5576 1.75
      vertex 11.2332 18.7834 1.75
      vertex 10.1821 20.9778 1.75
    endloop
  endfacet
  facet normal 0 0 1
    outer loop
      vertex 8.9209 17.9854 1.75
      vertex 11.2332 18.7834 1.75
      vertex 9.41138 19.5576 1.75
    endloop
  endfacet
  facet normal 0 0 1
    outer loop
      vertex 11.2332 18.7834 1.75
      vertex 8.9209 17.9854 1.75
      vertex 10.7307 16.9172 1.75
    endloop
  endfacet
  facet normal 0 0 1
    outer loop
      vertex 10.7307 16.9172 1.75
      vertex 8.9209 17.9854 1.75
      vertex 8.75171 16.7173 1.75
    endloop
  endfacet
  facet normal 0 0 1
    outer loop
      vertex 10.7307 16.9172 1.75
      vertex 8.75171 16.7173 1.75
      vertex 10.7307 4.8125 1.75
    endloop
  endfacet
  facet normal 0 0 1
    outer loop
      vertex 10.7307 4.8125 1.75
      vertex 8.75171 16.7173 1.75
      vertex 8.75171 4.8125 1.75
    endloop
  endfacet
  facet normal 0 0 1
    outer loop
      vertex 45.6299 16.9121 1.75
      vertex 50.35 4.8125 1.75
      vertex 52.6078 4.8125 1.75
    endloop
  endfacet
  facet normal 0 0 1
    outer loop
      vertex 50.35 4.8125 1.75
      vertex 45.6299 16.9121 1.75
      vertex 43.3638 16.9121 1.75
    endloop
  endfacet
  facet normal 0 1 -0
    outer loop
      vertex 129.567 43.8748 0
      vertex 127.271 43.8748 1.75
      vertex 129.567 43.8748 1.75
    endloop
  endfacet
  facet normal 0 1 0
    outer loop
      vertex 127.271 43.8748 1.75
      vertex 129.567 43.8748 0
      vertex 127.271 43.8748 0
    endloop
  endfacet
  facet normal -0.866254 0.499603 0
    outer loop
      vertex 106.195 7.32983 0
      vertex 127.271 43.8748 1.75
      vertex 127.271 43.8748 0
    endloop
  endfacet
  facet normal -0.866254 0.499603 0
    outer loop
      vertex 127.271 43.8748 1.75
      vertex 106.195 7.32983 0
      vertex 106.195 7.32983 1.75
    endloop
  endfacet
  facet normal 0.86616 0.499767 0
    outer loop
      vertex 106.195 7.32983 1.75
      vertex 100.675 16.8967 0
      vertex 100.675 16.8967 1.75
    endloop
  endfacet
  facet normal 0.86616 0.499767 0
    outer loop
      vertex 100.675 16.8967 0
      vertex 106.195 7.32983 1.75
      vertex 106.195 7.32983 0
    endloop
  endfacet
  facet normal -0.866236 0.499635 0
    outer loop
      vertex 99.5449 14.9382 0
      vertex 100.675 16.8967 1.75
      vertex 100.675 16.8967 0
    endloop
  endfacet
  facet normal -0.866236 0.499635 0
    outer loop
      vertex 100.675 16.8967 1.75
      vertex 99.5449 14.9382 0
      vertex 99.5449 14.9382 1.75
    endloop
  endfacet
  facet normal -0.866027 -0.499997 0
    outer loop
      vertex 105.391 4.8125 0
      vertex 99.5449 14.9382 1.75
      vertex 99.5449 14.9382 0
    endloop
  endfacet
  facet normal -0.866027 -0.499997 0
    outer loop
      vertex 99.5449 14.9382 1.75
      vertex 105.391 4.8125 0
      vertex 105.391 4.8125 1.75
    endloop
  endfacet
  facet normal 0.866216 -0.499671 0
    outer loop
      vertex 107.034 4.8125 1.75
      vertex 129.567 43.8748 0
      vertex 129.567 43.8748 1.75
    endloop
  endfacet
  facet normal 0.866216 -0.499671 0
    outer loop
      vertex 129.567 43.8748 0
      vertex 107.034 4.8125 1.75
      vertex 107.034 4.8125 0
    endloop
  endfacet
  facet normal 0 1 -0
    outer loop
      vertex 109.575 43.8748 0
      vertex 107.28 43.8748 1.75
      vertex 109.575 43.8748 1.75
    endloop
  endfacet
  facet normal 0 1 0
    outer loop
      vertex 107.28 43.8748 1.75
      vertex 109.575 43.8748 0
      vertex 107.28 43.8748 0
    endloop
  endfacet
  facet normal -0.866566 0.499063 0
    outer loop
      vertex 96.2004 24.6367 0
      vertex 107.28 43.8748 1.75
      vertex 107.28 43.8748 0
    endloop
  endfacet
  facet normal -0.866566 0.499063 0
    outer loop
      vertex 107.28 43.8748 1.75
      vertex 96.2004 24.6367 0
      vertex 96.2004 24.6367 1.75
    endloop
  endfacet
  facet normal 0.866366 0.499409 0
    outer loop
      vertex 96.2004 24.6367 1.75
      vertex 85.1108 43.8748 0
      vertex 85.1108 43.8748 1.75
    endloop
  endfacet
  facet normal 0.866366 0.499409 0
    outer loop
      vertex 85.1108 43.8748 0
      vertex 96.2004 24.6367 1.75
      vertex 96.2004 24.6367 0
    endloop
  endfacet
  facet normal 0 1 -0
    outer loop
      vertex 85.1108 43.8748 0
      vertex 82.8499 43.8748 1.75
      vertex 85.1108 43.8748 1.75
    endloop
  endfacet
  facet normal 0 1 0
    outer loop
      vertex 82.8499 43.8748 1.75
      vertex 85.1108 43.8748 0
      vertex 82.8499 43.8748 0
    endloop
  endfacet
  facet normal -0.866666 -0.498888 0
    outer loop
      vertex 95.0623 22.6594 0
      vertex 82.8499 43.8748 1.75
      vertex 82.8499 43.8748 0
    endloop
  endfacet
  facet normal -0.866666 -0.498888 0
    outer loop
      vertex 82.8499 43.8748 1.75
      vertex 95.0623 22.6594 0
      vertex 95.0623 22.6594 1.75
    endloop
  endfacet
  facet normal -0.865977 0.500085 0
    outer loop
      vertex 86.2097 7.32983 0
      vertex 95.0623 22.6594 1.75
      vertex 95.0623 22.6594 0
    endloop
  endfacet
  facet normal -0.865977 0.500085 0
    outer loop
      vertex 95.0623 22.6594 1.75
      vertex 86.2097 7.32983 0
      vertex 86.2097 7.32983 1.75
    endloop
  endfacet
  facet normal 0.866079 0.499907 0
    outer loop
      vertex 86.2097 7.32983 1.75
      vertex 65.1157 43.8748 0
      vertex 65.1157 43.8748 1.75
    endloop
  endfacet
  facet normal 0.866079 0.499907 0
    outer loop
      vertex 65.1157 43.8748 0
      vertex 86.2097 7.32983 1.75
      vertex 86.2097 7.32983 0
    endloop
  endfacet
  facet normal 0 1 -0
    outer loop
      vertex 65.1157 43.8748 0
      vertex 62.8564 43.8748 1.75
      vertex 65.1157 43.8748 1.75
    endloop
  endfacet
  facet normal 0 1 0
    outer loop
      vertex 62.8564 43.8748 1.75
      vertex 65.1157 43.8748 0
      vertex 62.8564 43.8748 0
    endloop
  endfacet
  facet normal -0.866118 -0.499839 0
    outer loop
      vertex 85.3994 4.8125 0
      vertex 62.8564 43.8748 1.75
      vertex 62.8564 43.8748 0
    endloop
  endfacet
  facet normal -0.866118 -0.499839 0
    outer loop
      vertex 62.8564 43.8748 1.75
      vertex 85.3994 4.8125 0
      vertex 85.3994 4.8125 1.75
    endloop
  endfacet
  facet normal 0.866216 -0.499671 0
    outer loop
      vertex 87.0422 4.8125 1.75
      vertex 109.575 43.8748 0
      vertex 109.575 43.8748 1.75
    endloop
  endfacet
  facet normal 0.866216 -0.499671 0
    outer loop
      vertex 109.575 43.8748 0
      vertex 87.0422 4.8125 1.75
      vertex 87.0422 4.8125 0
    endloop
  endfacet
  facet normal 0.965616 -0.259973 0
    outer loop
      vertex 10.7307 16.9172 1.75
      vertex 11.2332 18.7834 0
      vertex 11.2332 18.7834 1.75
    endloop
  endfacet
  facet normal 0.965616 -0.259973 0
    outer loop
      vertex 11.2332 18.7834 0
      vertex 10.7307 16.9172 1.75
      vertex 10.7307 16.9172 0
    endloop
  endfacet
  facet normal 0.828274 -0.560323 0
    outer loop
      vertex 11.2332 18.7834 1.75
      vertex 12.6055 20.812 0
      vertex 12.6055 20.812 1.75
    endloop
  endfacet
  facet normal 0.828274 -0.560323 0
    outer loop
      vertex 12.6055 20.812 0
      vertex 11.2332 18.7834 1.75
      vertex 11.2332 18.7834 0
    endloop
  endfacet
  facet normal 0.56004 -0.828466 0
    outer loop
      vertex 12.6055 20.812 0
      vertex 14.6204 22.1741 1.75
      vertex 12.6055 20.812 1.75
    endloop
  endfacet
  facet normal 0.56004 -0.828466 0
    outer loop
      vertex 14.6204 22.1741 1.75
      vertex 12.6055 20.812 0
      vertex 14.6204 22.1741 0
    endloop
  endfacet
  facet normal 0.263499 -0.96466 0
    outer loop
      vertex 14.6204 22.1741 0
      vertex 16.4473 22.6731 1.75
      vertex 14.6204 22.1741 1.75
    endloop
  endfacet
  facet normal 0.263499 -0.96466 0
    outer loop
      vertex 16.4473 22.6731 1.75
      vertex 14.6204 22.1741 0
      vertex 16.4473 22.6731 0
    endloop
  endfacet
  facet normal 0.000128469 -1 0
    outer loop
      vertex 16.4473 22.6731 0
      vertex 43.0527 22.6765 1.75
      vertex 16.4473 22.6731 1.75
    endloop
  endfacet
  facet normal 0.000128469 -1 0
    outer loop
      vertex 43.0527 22.6765 1.75
      vertex 16.4473 22.6731 0
      vertex 43.0527 22.6765 0
    endloop
  endfacet
  facet normal 0.26922 -0.963079 0
    outer loop
      vertex 43.0527 22.6765 0
      vertex 46.1768 23.5498 1.75
      vertex 43.0527 22.6765 1.75
    endloop
  endfacet
  facet normal 0.26922 -0.963079 0
    outer loop
      vertex 46.1768 23.5498 1.75
      vertex 43.0527 22.6765 0
      vertex 46.1768 23.5498 0
    endloop
  endfacet
  facet normal 0.572503 -0.819902 0
    outer loop
      vertex 46.1768 23.5498 0
      vertex 49.5127 25.8792 1.75
      vertex 46.1768 23.5498 1.75
    endloop
  endfacet
  facet normal 0.572503 -0.819902 0
    outer loop
      vertex 49.5127 25.8792 1.75
      vertex 46.1768 23.5498 0
      vertex 49.5127 25.8792 0
    endloop
  endfacet
  facet normal 0.835366 -0.549694 0
    outer loop
      vertex 49.5127 25.8792 1.75
      vertex 51.7258 29.2424 0
      vertex 51.7258 29.2424 1.75
    endloop
  endfacet
  facet normal 0.835366 -0.549694 0
    outer loop
      vertex 51.7258 29.2424 0
      vertex 49.5127 25.8792 1.75
      vertex 49.5127 25.8792 0
    endloop
  endfacet
  facet normal 0.965589 -0.260073 0
    outer loop
      vertex 51.7258 29.2424 1.75
      vertex 52.5291 32.2246 0
      vertex 52.5291 32.2246 1.75
    endloop
  endfacet
  facet normal 0.965589 -0.260073 0
    outer loop
      vertex 52.5291 32.2246 0
      vertex 51.7258 29.2424 1.75
      vertex 51.7258 29.2424 0
    endloop
  endfacet
  facet normal 1 -0 0
    outer loop
      vertex 52.5291 32.2246 1.75
      vertex 52.5291 34.1917 0
      vertex 52.5291 34.1917 1.75
    endloop
  endfacet
  facet normal 1 0 0
    outer loop
      vertex 52.5291 34.1917 0
      vertex 52.5291 32.2246 1.75
      vertex 52.5291 32.2246 0
    endloop
  endfacet
  facet normal 0.968863 0.247598 0
    outer loop
      vertex 52.5291 34.1917 1.75
      vertex 51.7822 37.114 0
      vertex 51.7822 37.114 1.75
    endloop
  endfacet
  facet normal 0.968863 0.247598 0
    outer loop
      vertex 51.7822 37.114 0
      vertex 52.5291 34.1917 1.75
      vertex 52.5291 34.1917 0
    endloop
  endfacet
  facet normal 0.846806 0.531902 0
    outer loop
      vertex 51.7822 37.114 1.75
      vertex 49.6375 40.5286 0
      vertex 49.6375 40.5286 1.75
    endloop
  endfacet
  facet normal 0.846806 0.531902 0
    outer loop
      vertex 49.6375 40.5286 0
      vertex 51.7822 37.114 1.75
      vertex 51.7822 37.114 0
    endloop
  endfacet
  facet normal 0.580774 0.814065 -0
    outer loop
      vertex 49.6375 40.5286 0
      vertex 46.2383 42.9536 1.75
      vertex 49.6375 40.5286 1.75
    endloop
  endfacet
  facet normal 0.580774 0.814065 0
    outer loop
      vertex 46.2383 42.9536 1.75
      vertex 49.6375 40.5286 0
      vertex 46.2383 42.9536 0
    endloop
  endfacet
  facet normal 0.262126 0.965034 -0
    outer loop
      vertex 46.2383 42.9536 0
      vertex 42.8596 43.8713 1.75
      vertex 46.2383 42.9536 1.75
    endloop
  endfacet
  facet normal 0.262126 0.965034 0
    outer loop
      vertex 42.8596 43.8713 1.75
      vertex 46.2383 42.9536 0
      vertex 42.8596 43.8713 0
    endloop
  endfacet
  facet normal 0 1 -0
    outer loop
      vertex 42.8596 43.8713 0
      vertex 8.75 43.8713 1.75
      vertex 42.8596 43.8713 1.75
    endloop
  endfacet
  facet normal 0 1 0
    outer loop
      vertex 8.75 43.8713 1.75
      vertex 42.8596 43.8713 0
      vertex 8.75 43.8713 0
    endloop
  endfacet
  facet normal -1 0 0
    outer loop
      vertex 8.75 41.894 0
      vertex 8.75 43.8713 1.75
      vertex 8.75 43.8713 0
    endloop
  endfacet
  facet normal -1 -0 0
    outer loop
      vertex 8.75 43.8713 1.75
      vertex 8.75 41.894 0
      vertex 8.75 41.894 1.75
    endloop
  endfacet
  facet normal 0 -1 0
    outer loop
      vertex 8.75 41.894 0
      vertex 42.4495 41.894 1.75
      vertex 8.75 41.894 1.75
    endloop
  endfacet
  facet normal 0 -1 -0
    outer loop
      vertex 42.4495 41.894 1.75
      vertex 8.75 41.894 0
      vertex 42.4495 41.894 0
    endloop
  endfacet
  facet normal -0.134633 -0.990896 0
    outer loop
      vertex 42.4495 41.894 0
      vertex 43.7073 41.7231 1.75
      vertex 42.4495 41.894 1.75
    endloop
  endfacet
  facet normal -0.134633 -0.990896 -0
    outer loop
      vertex 43.7073 41.7231 1.75
      vertex 42.4495 41.894 0
      vertex 43.7073 41.7231 0
    endloop
  endfacet
  facet normal -0.300737 -0.953707 0
    outer loop
      vertex 43.7073 41.7231 0
      vertex 45.2898 41.2241 1.75
      vertex 43.7073 41.7231 1.75
    endloop
  endfacet
  facet normal -0.300737 -0.953707 -0
    outer loop
      vertex 45.2898 41.2241 1.75
      vertex 43.7073 41.7231 0
      vertex 45.2898 41.2241 0
    endloop
  endfacet
  facet normal -0.479725 -0.877419 0
    outer loop
      vertex 45.2898 41.2241 0
      vertex 46.7339 40.4346 1.75
      vertex 45.2898 41.2241 1.75
    endloop
  endfacet
  facet normal -0.479725 -0.877419 -0
    outer loop
      vertex 46.7339 40.4346 1.75
      vertex 45.2898 41.2241 0
      vertex 46.7339 40.4346 0
    endloop
  endfacet
  facet normal -0.637631 -0.770342 0
    outer loop
      vertex 46.7339 40.4346 0
      vertex 48.0037 39.3835 1.75
      vertex 46.7339 40.4346 1.75
    endloop
  endfacet
  facet normal -0.637631 -0.770342 -0
    outer loop
      vertex 48.0037 39.3835 1.75
      vertex 46.7339 40.4346 0
      vertex 48.0037 39.3835 0
    endloop
  endfacet
  facet normal -0.770918 -0.636935 0
    outer loop
      vertex 49.0598 38.1052 0
      vertex 48.0037 39.3835 1.75
      vertex 48.0037 39.3835 0
    endloop
  endfacet
  facet normal -0.770918 -0.636935 0
    outer loop
      vertex 48.0037 39.3835 1.75
      vertex 49.0598 38.1052 0
      vertex 49.0598 38.1052 1.75
    endloop
  endfacet
  facet normal -0.878207 -0.478282 0
    outer loop
      vertex 49.863 36.6304 0
      vertex 49.0598 38.1052 1.75
      vertex 49.0598 38.1052 0
    endloop
  endfacet
  facet normal -0.878207 -0.478282 0
    outer loop
      vertex 49.0598 38.1052 1.75
      vertex 49.863 36.6304 0
      vertex 49.863 36.6304 1.75
    endloop
  endfacet
  facet normal -0.955326 -0.295554 0
    outer loop
      vertex 50.3706 34.9897 0
      vertex 49.863 36.6304 1.75
      vertex 49.863 36.6304 0
    endloop
  endfacet
  facet normal -0.955326 -0.295554 0
    outer loop
      vertex 49.863 36.6304 1.75
      vertex 50.3706 34.9897 0
      vertex 50.3706 34.9897 1.75
    endloop
  endfacet
  facet normal -0.990822 -0.13517 0
    outer loop
      vertex 50.5518 33.6619 0
      vertex 50.3706 34.9897 1.75
      vertex 50.3706 34.9897 0
    endloop
  endfacet
  facet normal -0.990822 -0.13517 0
    outer loop
      vertex 50.3706 34.9897 1.75
      vertex 50.5518 33.6619 0
      vertex 50.5518 33.6619 1.75
    endloop
  endfacet
  facet normal -1 0 0
    outer loop
      vertex 50.5518 32.8074 0
      vertex 50.5518 33.6619 1.75
      vertex 50.5518 33.6619 0
    endloop
  endfacet
  facet normal -1 -0 0
    outer loop
      vertex 50.5518 33.6619 1.75
      vertex 50.5518 32.8074 0
      vertex 50.5518 32.8074 1.75
    endloop
  endfacet
  facet normal -0.991071 0.133334 0
    outer loop
      vertex 50.386 31.5752 0
      vertex 50.5518 32.8074 1.75
      vertex 50.5518 32.8074 0
    endloop
  endfacet
  facet normal -0.991071 0.133334 0
    outer loop
      vertex 50.5518 32.8074 1.75
      vertex 50.386 31.5752 0
      vertex 50.386 31.5752 1.75
    endloop
  endfacet
  facet normal -0.956586 0.291452 0
    outer loop
      vertex 49.9075 30.0046 0
      vertex 50.386 31.5752 1.75
      vertex 50.386 31.5752 0
    endloop
  endfacet
  facet normal -0.956586 0.291452 0
    outer loop
      vertex 50.386 31.5752 1.75
      vertex 49.9075 30.0046 0
      vertex 49.9075 30.0046 1.75
    endloop
  endfacet
  facet normal -0.884624 0.466305 0
    outer loop
      vertex 49.1436 28.5554 0
      vertex 49.9075 30.0046 1.75
      vertex 49.9075 30.0046 0
    endloop
  endfacet
  facet normal -0.884624 0.466305 0
    outer loop
      vertex 49.9075 30.0046 1.75
      vertex 49.1436 28.5554 0
      vertex 49.1436 28.5554 1.75
    endloop
  endfacet
  facet normal -0.781173 0.624315 0
    outer loop
      vertex 48.1165 27.2703 0
      vertex 49.1436 28.5554 1.75
      vertex 49.1436 28.5554 0
    endloop
  endfacet
  facet normal -0.781173 0.624315 0
    outer loop
      vertex 49.1436 28.5554 1.75
      vertex 48.1165 27.2703 0
      vertex 48.1165 27.2703 1.75
    endloop
  endfacet
  facet normal -0.649349 0.76049 0
    outer loop
      vertex 48.1165 27.2703 0
      vertex 46.8535 26.1919 1.75
      vertex 48.1165 27.2703 1.75
    endloop
  endfacet
  facet normal -0.649349 0.76049 0
    outer loop
      vertex 46.8535 26.1919 1.75
      vertex 48.1165 27.2703 0
      vertex 46.8535 26.1919 0
    endloop
  endfacet
  facet normal -0.488296 0.872678 0
    outer loop
      vertex 46.8535 26.1919 0
      vertex 45.3752 25.3647 1.75
      vertex 46.8535 26.1919 1.75
    endloop
  endfacet
  facet normal -0.488296 0.872678 0
    outer loop
      vertex 45.3752 25.3647 1.75
      vertex 46.8535 26.1919 0
      vertex 45.3752 25.3647 0
    endloop
  endfacet
  facet normal -0.299776 0.95401 0
    outer loop
      vertex 45.3752 25.3647 0
      vertex 43.7056 24.8401 1.75
      vertex 45.3752 25.3647 1.75
    endloop
  endfacet
  facet normal -0.299776 0.95401 0
    outer loop
      vertex 43.7056 24.8401 1.75
      vertex 45.3752 25.3647 0
      vertex 43.7056 24.8401 0
    endloop
  endfacet
  facet normal -0.135719 0.990747 0
    outer loop
      vertex 43.7056 24.8401 0
      vertex 42.3333 24.6521 1.75
      vertex 43.7056 24.8401 1.75
    endloop
  endfacet
  facet normal -0.135719 0.990747 0
    outer loop
      vertex 42.3333 24.6521 1.75
      vertex 43.7056 24.8401 0
      vertex 42.3333 24.6521 0
    endloop
  endfacet
  facet normal 0 1 -0
    outer loop
      vertex 42.3333 24.6521 0
      vertex 16.6404 24.6521 1.75
      vertex 42.3333 24.6521 1.75
    endloop
  endfacet
  facet normal 0 1 0
    outer loop
      vertex 16.6404 24.6521 1.75
      vertex 42.3333 24.6521 0
      vertex 16.6404 24.6521 0
    endloop
  endfacet
  facet normal -0.134749 0.99088 0
    outer loop
      vertex 16.6404 24.6521 0
      vertex 15.3962 24.4829 1.75
      vertex 16.6404 24.6521 1.75
    endloop
  endfacet
  facet normal -0.134749 0.99088 0
    outer loop
      vertex 15.3962 24.4829 1.75
      vertex 16.6404 24.6521 0
      vertex 15.3962 24.4829 0
    endloop
  endfacet
  facet normal -0.298814 0.954311 0
    outer loop
      vertex 15.3962 24.4829 0
      vertex 13.8462 23.9976 1.75
      vertex 15.3962 24.4829 1.75
    endloop
  endfacet
  facet normal -0.298814 0.954311 0
    outer loop
      vertex 13.8462 23.9976 1.75
      vertex 15.3962 24.4829 0
      vertex 13.8462 23.9976 0
    endloop
  endfacet
  facet normal -0.477585 0.878586 0
    outer loop
      vertex 13.8462 23.9976 0
      vertex 12.4346 23.2302 1.75
      vertex 13.8462 23.9976 1.75
    endloop
  endfacet
  facet normal -0.477585 0.878586 0
    outer loop
      vertex 12.4346 23.2302 1.75
      vertex 13.8462 23.9976 0
      vertex 12.4346 23.2302 0
    endloop
  endfacet
  facet normal -0.636494 0.771281 0
    outer loop
      vertex 12.4346 23.2302 0
      vertex 11.2024 22.2134 1.75
      vertex 12.4346 23.2302 1.75
    endloop
  endfacet
  facet normal -0.636494 0.771281 0
    outer loop
      vertex 11.2024 22.2134 1.75
      vertex 12.4346 23.2302 0
      vertex 11.2024 22.2134 0
    endloop
  endfacet
  facet normal -0.771098 0.636716 0
    outer loop
      vertex 10.1821 20.9778 0
      vertex 11.2024 22.2134 1.75
      vertex 11.2024 22.2134 0
    endloop
  endfacet
  facet normal -0.771098 0.636716 0
    outer loop
      vertex 11.2024 22.2134 1.75
      vertex 10.1821 20.9778 0
      vertex 10.1821 20.9778 1.75
    endloop
  endfacet
  facet normal -0.878904 0.476998 0
    outer loop
      vertex 9.41138 19.5576 0
      vertex 10.1821 20.9778 1.75
      vertex 10.1821 20.9778 0
    endloop
  endfacet
  facet normal -0.878904 0.476998 0
    outer loop
      vertex 10.1821 20.9778 1.75
      vertex 9.41138 19.5576 0
      vertex 9.41138 19.5576 1.75
    endloop
  endfacet
  facet normal -0.954628 0.297802 0
    outer loop
      vertex 8.9209 17.9854 0
      vertex 9.41138 19.5576 1.75
      vertex 9.41138 19.5576 0
    endloop
  endfacet
  facet normal -0.954628 0.297802 0
    outer loop
      vertex 9.41138 19.5576 1.75
      vertex 8.9209 17.9854 0
      vertex 8.9209 17.9854 1.75
    endloop
  endfacet
  facet normal -0.991216 0.132251 0
    outer loop
      vertex 8.75171 16.7173 0
      vertex 8.9209 17.9854 1.75
      vertex 8.9209 17.9854 0
    endloop
  endfacet
  facet normal -0.991216 0.132251 0
    outer loop
      vertex 8.9209 17.9854 1.75
      vertex 8.75171 16.7173 0
      vertex 8.75171 16.7173 1.75
    endloop
  endfacet
  facet normal -1 0 0
    outer loop
      vertex 8.75171 4.8125 0
      vertex 8.75171 16.7173 1.75
      vertex 8.75171 16.7173 0
    endloop
  endfacet
  facet normal -1 -0 0
    outer loop
      vertex 8.75171 16.7173 1.75
      vertex 8.75171 4.8125 0
      vertex 8.75171 4.8125 1.75
    endloop
  endfacet
  facet normal 1 -0 0
    outer loop
      vertex 10.7307 4.8125 1.75
      vertex 10.7307 16.9172 0
      vertex 10.7307 16.9172 1.75
    endloop
  endfacet
  facet normal 1 0 0
    outer loop
      vertex 10.7307 16.9172 0
      vertex 10.7307 4.8125 1.75
      vertex 10.7307 4.8125 0
    endloop
  endfacet
  facet normal 0 1 -0
    outer loop
      vertex 45.6299 16.9121 0
      vertex 43.3638 16.9121 1.75
      vertex 45.6299 16.9121 1.75
    endloop
  endfacet
  facet normal 0 1 0
    outer loop
      vertex 43.3638 16.9121 1.75
      vertex 45.6299 16.9121 0
      vertex 43.3638 16.9121 0
    endloop
  endfacet
  facet normal -0.866011 -0.500026 0
    outer loop
      vertex 50.35 4.8125 0
      vertex 43.3638 16.9121 1.75
      vertex 43.3638 16.9121 0
    endloop
  endfacet
  facet normal -0.866011 -0.500026 0
    outer loop
      vertex 43.3638 16.9121 1.75
      vertex 50.35 4.8125 0
      vertex 50.35 4.8125 1.75
    endloop
  endfacet
  facet normal 0.866266 0.499583 0
    outer loop
      vertex 52.6078 4.8125 1.75
      vertex 45.6299 16.9121 0
      vertex 45.6299 16.9121 1.75
    endloop
  endfacet
  facet normal 0.866266 0.499583 0
    outer loop
      vertex 45.6299 16.9121 0
      vertex 52.6078 4.8125 1.75
      vertex 52.6078 4.8125 0
    endloop
  endfacet
endsolid OpenSCAD_Model
